<svg xmlns="http://www.w3.org/2000/svg" viewBox="0 0 794 1123">
<path d="M 304 103 L 303 109 L 299 113 L 291 115 L 290 120 L 284 123 L 284 126 L 280 131 L 284 138 L 278 157 L 292 169 L 296 170 L 300 162 L 298 153 L 299 146 L 305 146 L 311 151 L 310 162 L 317 166 L 321 175 L 326 177 L 331 176 L 336 180 L 340 176 L 345 180 L 356 170 L 355 152 L 350 155 L 344 150 L 338 151 L 333 144 L 333 137 L 328 135 L 327 126 L 325 125 L 329 111 L 316 112 Z" fill="rgb(222, 210, 230)" stroke="white" stroke-width="2"/>
<path d="M 403 123 L 392 110 L 363 110 L 352 136 L 344 115 L 331 112 L 328 124 L 339 148 L 358 150 L 356 175 L 345 184 L 319 178 L 307 162 L 308 152 L 301 149 L 302 167 L 297 173 L 278 160 L 275 168 L 246 184 L 249 197 L 262 201 L 295 200 L 299 209 L 290 217 L 299 231 L 303 226 L 315 229 L 317 223 L 327 223 L 333 228 L 347 227 L 354 210 L 375 212 L 402 178 Z" fill="rgb(184, 209, 195)" stroke="white" stroke-width="2"/>
<path d="M 406 172 L 405 179 L 378 212 L 419 214 L 418 280 L 487 283 L 487 270 L 495 265 L 494 261 L 499 257 L 500 252 L 485 238 L 479 238 L 476 233 L 470 231 L 468 225 L 456 216 L 451 205 L 439 197 L 433 188 L 426 186 L 418 178 Z" fill="rgb(209, 224, 230)" stroke="white" stroke-width="2"/>
<path d="M 407 126 L 406 168 L 435 185 L 441 194 L 454 203 L 459 213 L 471 223 L 473 228 L 477 229 L 480 234 L 487 235 L 503 251 L 508 233 L 514 229 L 518 220 L 523 217 L 524 214 L 520 207 L 494 194 L 464 171 L 456 171 L 438 164 L 436 159 L 412 138 Z" fill="rgb(188, 200, 211)" stroke="white" stroke-width="2"/>
<path d="M 246 201 L 244 212 L 249 228 L 245 232 L 245 239 L 251 247 L 251 253 L 244 258 L 239 257 L 232 272 L 249 271 L 250 279 L 262 282 L 265 289 L 284 286 L 295 289 L 303 304 L 317 315 L 325 338 L 330 338 L 334 333 L 335 323 L 331 317 L 328 299 L 329 280 L 325 278 L 320 283 L 310 272 L 308 264 L 303 261 L 311 244 L 303 237 L 305 230 L 298 235 L 287 219 L 287 214 L 295 211 L 294 203 L 261 204 Z" fill="rgb(224, 209, 230)" stroke="white" stroke-width="2"/>
<path d="M 344 230 L 341 230 L 336 232 L 329 229 L 326 226 L 325 227 L 319 226 L 319 229 L 317 232 L 309 231 L 307 235 L 314 243 L 314 249 L 308 257 L 307 260 L 311 262 L 312 268 L 314 272 L 319 275 L 319 278 L 320 279 L 325 275 L 332 276 L 334 274 L 332 270 L 334 267 L 332 265 L 337 260 L 341 250 L 341 247 L 346 241 L 346 231 Z" fill="rgb(183, 215, 215)" stroke="white" stroke-width="2"/>
<path d="M 355 213 L 349 227 L 349 243 L 345 245 L 341 257 L 335 265 L 337 266 L 335 269 L 336 275 L 332 278 L 335 318 L 338 323 L 353 320 L 364 327 L 372 327 L 374 330 L 401 331 L 405 338 L 415 284 L 417 216 Z" fill="rgb(170, 221, 209)" stroke="white" stroke-width="2"/>
<path d="M 620 227 L 614 224 L 608 227 L 604 226 L 605 231 L 603 234 L 603 241 L 600 248 L 597 251 L 597 254 L 588 260 L 586 264 L 580 263 L 575 268 L 575 272 L 568 276 L 564 273 L 564 276 L 567 282 L 567 288 L 570 293 L 573 293 L 580 287 L 583 287 L 585 284 L 588 284 L 590 280 L 606 275 L 609 271 L 612 272 L 615 269 L 618 269 L 621 263 L 621 253 L 624 244 L 621 238 Z" fill="rgb(184, 230, 210)" stroke="white" stroke-width="2"/>
<path d="M 219 295 L 217 312 L 211 318 L 216 346 L 212 351 L 208 351 L 205 364 L 207 369 L 200 375 L 200 385 L 203 391 L 209 395 L 206 398 L 207 404 L 219 402 L 221 398 L 233 392 L 240 397 L 241 403 L 258 395 L 265 399 L 274 399 L 274 390 L 276 388 L 288 389 L 281 379 L 280 360 L 252 331 L 242 328 L 234 329 L 234 309 L 226 297 Z" fill="rgb(224, 224, 213)" stroke="white" stroke-width="2"/>
<path d="M 232 276 L 232 279 L 221 292 L 230 296 L 238 308 L 237 326 L 252 327 L 271 344 L 285 363 L 284 376 L 293 390 L 313 389 L 313 369 L 323 341 L 313 316 L 300 306 L 300 302 L 293 292 L 284 290 L 281 292 L 264 293 L 260 286 L 248 282 L 246 275 Z" fill="rgb(185, 187, 228)" stroke="white" stroke-width="2"/>
<path d="M 485 287 L 418 284 L 406 349 L 412 363 L 402 399 L 409 409 L 413 424 L 386 462 L 408 464 L 429 441 L 438 443 L 443 436 L 432 415 L 436 390 L 447 384 L 462 363 L 466 324 L 477 313 L 481 289 Z" fill="rgb(212, 230, 230)" stroke="white" stroke-width="2"/>
<path d="M 561 272 L 557 273 L 553 280 L 549 276 L 532 275 L 513 267 L 497 267 L 492 270 L 491 285 L 485 291 L 485 301 L 481 315 L 471 323 L 468 349 L 475 350 L 481 346 L 486 347 L 492 345 L 501 348 L 507 359 L 513 353 L 513 350 L 522 344 L 523 339 L 529 337 L 539 327 L 541 322 L 548 318 L 550 312 L 564 299 L 567 301 L 564 298 L 567 295 L 563 288 L 563 282 L 560 276 Z" fill="rgb(195, 225, 230)" stroke="white" stroke-width="2"/>
<path d="M 232 396 L 224 399 L 221 404 L 209 406 L 214 422 L 212 431 L 216 431 L 220 436 L 218 442 L 220 460 L 215 463 L 211 471 L 208 488 L 205 491 L 210 506 L 210 519 L 224 534 L 224 539 L 229 542 L 239 542 L 241 546 L 257 551 L 256 508 L 293 507 L 296 483 L 288 461 L 290 453 L 280 436 L 279 416 L 274 402 L 264 402 L 257 398 L 244 406 L 239 406 L 237 399 Z" fill="rgb(192, 189, 228)" stroke="white" stroke-width="2"/>
<path d="M 277 392 L 277 404 L 282 417 L 281 424 L 283 436 L 293 453 L 291 462 L 299 483 L 296 508 L 329 509 L 328 429 L 332 423 L 334 405 L 328 406 L 326 399 L 316 393 L 294 394 Z" fill="rgb(226, 184, 203)" stroke="white" stroke-width="2"/>
<path d="M 338 325 L 336 335 L 325 343 L 317 367 L 317 390 L 325 394 L 329 402 L 335 402 L 337 405 L 334 426 L 331 429 L 332 479 L 369 480 L 370 464 L 373 461 L 382 462 L 409 424 L 407 413 L 399 401 L 399 387 L 409 361 L 403 353 L 404 343 L 401 334 L 374 333 L 371 329 L 362 329 L 355 323 Z" fill="rgb(179, 214, 213)" stroke="white" stroke-width="2"/>
<path d="M 493 349 L 481 350 L 477 353 L 467 353 L 466 363 L 454 381 L 444 391 L 439 392 L 439 401 L 436 412 L 438 421 L 444 431 L 459 444 L 469 447 L 482 457 L 486 457 L 484 447 L 489 431 L 495 430 L 494 415 L 497 411 L 497 396 L 501 393 L 502 389 L 500 385 L 505 379 L 505 370 L 508 369 L 503 356 L 499 351 Z" fill="rgb(229, 211, 202)" stroke="white" stroke-width="2"/>
<path d="M 206 516 L 202 519 L 201 525 L 195 526 L 192 534 L 195 543 L 193 547 L 194 562 L 198 570 L 199 581 L 202 583 L 202 590 L 191 597 L 190 617 L 186 618 L 188 627 L 187 631 L 184 632 L 188 638 L 185 641 L 183 651 L 185 655 L 192 656 L 197 655 L 196 648 L 200 643 L 218 638 L 221 623 L 242 609 L 254 594 L 262 593 L 257 586 L 256 555 L 250 551 L 241 550 L 237 545 L 226 545 L 220 539 L 221 536 L 207 522 Z" fill="rgb(223, 228, 230)" stroke="white" stroke-width="2"/>
<path d="M 185 676 L 188 683 L 328 679 L 325 651 L 332 643 L 356 656 L 376 654 L 364 646 L 365 607 L 343 593 L 297 589 L 282 575 L 274 576 L 268 571 L 266 564 L 269 558 L 261 557 L 261 586 L 266 596 L 258 597 L 234 622 L 224 627 L 219 644 L 203 647 L 203 654 L 198 660 L 185 659 Z" fill="rgb(218, 194, 217)" stroke="white" stroke-width="2"/>
<path d="M 259 512 L 260 553 L 267 553 L 273 558 L 270 567 L 275 572 L 284 571 L 288 578 L 296 581 L 300 586 L 345 590 L 365 603 L 369 484 L 333 483 L 331 512 Z" fill="rgb(173, 230, 230)" stroke="white" stroke-width="2"/>
<path d="M 445 438 L 439 447 L 430 445 L 410 467 L 373 465 L 368 644 L 379 653 L 387 649 L 383 634 L 388 620 L 393 618 L 394 611 L 388 606 L 389 590 L 407 597 L 426 597 L 483 586 L 497 579 L 499 571 L 521 544 L 521 532 L 507 519 L 514 503 L 499 485 L 482 479 L 485 472 L 482 466 L 487 462 Z" fill="rgb(177, 212, 224)" stroke="white" stroke-width="2"/>
<path d="M 276 799 L 201 802 L 195 806 L 199 822 L 194 827 L 197 835 L 188 844 L 186 854 L 191 869 L 186 873 L 186 884 L 170 906 L 180 938 L 190 932 L 197 934 L 197 960 L 207 971 L 240 969 L 264 976 L 255 961 L 244 960 L 255 956 L 251 943 L 242 947 L 251 938 L 255 921 L 263 917 L 257 901 L 267 913 L 274 910 L 276 896 L 273 895 L 278 883 L 308 855 L 313 839 L 310 829 L 296 828 L 280 814 Z" fill="rgb(171, 183, 230)" stroke="white" stroke-width="2"/>
<path d="M 339 690 L 328 682 L 190 686 L 183 692 L 184 714 L 192 718 L 189 727 L 194 731 L 193 753 L 202 752 L 207 756 L 202 767 L 188 768 L 196 769 L 204 779 L 196 790 L 199 799 L 277 795 L 291 773 L 305 765 L 316 766 L 314 758 L 324 748 L 322 728 L 332 714 L 341 710 L 329 704 Z" fill="rgb(209, 202, 222)" stroke="white" stroke-width="2"/>
<path d="M 266 1008 L 266 1017 L 267 1018 L 267 1047 L 268 1050 L 274 1049 L 275 1050 L 281 1050 L 282 1051 L 293 1051 L 298 1053 L 300 1055 L 307 1054 L 309 1051 L 317 1052 L 320 1050 L 321 1047 L 313 1048 L 301 1042 L 294 1034 L 288 1031 L 281 1025 L 281 1023 L 274 1016 L 272 1010 Z" fill="rgb(195, 214, 213)" stroke="white" stroke-width="2"/>
<path d="M 356 686 L 354 686 L 353 687 L 352 687 L 352 693 L 349 696 L 346 696 L 350 700 L 349 701 L 349 704 L 350 705 L 351 705 L 352 704 L 356 704 L 357 703 L 358 703 L 358 701 L 359 700 L 359 691 L 358 690 L 358 689 L 357 688 L 357 687 Z" fill="rgb(182, 228, 219)" stroke="white" stroke-width="2"/>
</svg>