<svg xmlns="http://www.w3.org/2000/svg" viewBox="0 0 56 48"><path d="M 0 0 L 0 9 L 1 10 L 1 39 L 2 42 L 8 41 L 9 42 L 15 42 L 16 43 L 27 43 L 32 45 L 34 47 L 41 46 L 43 43 L 51 44 L 54 42 L 55 39 L 47 40 L 35 34 L 28 26 L 22 23 L 15 17 L 15 15 L 8 8 L 6 2 Z" fill="rgb(195, 214, 213)" stroke="none"/></svg>
<svg xmlns="http://www.w3.org/2000/svg" viewBox="0 0 56 48"><path d="M 0 0 L 0 9 L 1 10 L 1 39 L 2 42 L 8 41 L 9 42 L 15 42 L 16 43 L 27 43 L 32 45 L 34 47 L 41 46 L 43 43 L 51 44 L 54 42 L 55 39 L 47 40 L 35 34 L 28 26 L 22 23 L 15 17 L 15 15 L 8 8 L 6 2 Z" fill="rgb(195, 214, 213)" stroke="none"/></svg>